<svg width="46" height="13" viewBox="0 0 46 13" fill="none" xmlns="http://www.w3.org/2000/svg">
<path d="M3.91619 12L0.68892 0.363636H2.53551L4.80256 9.375H4.91051L7.26847 0.363636H9.09801L11.456 9.38068H11.5639L13.8253 0.363636H15.6776L12.4446 12H10.6776L8.22869 3.28409H8.13778L5.68892 12H3.91619ZM18.8224 12.1932C18.2694 12.1932 17.7694 12.0909 17.3224 11.8864C16.8755 11.678 16.5213 11.3769 16.2599 10.983C16.0024 10.589 15.8736 10.1061 15.8736 9.53409C15.8736 9.04167 15.9683 8.63636 16.1577 8.31818C16.3471 8 16.6027 7.74811 16.9247 7.5625C17.2467 7.37689 17.6065 7.23674 18.0043 7.14205C18.402 7.04735 18.8073 6.97538 19.2202 6.92614C19.7429 6.86553 20.1671 6.81629 20.4929 6.77841C20.8187 6.73674 21.0554 6.67045 21.2031 6.57955C21.3509 6.48864 21.4247 6.34091 21.4247 6.13636V6.09659C21.4247 5.60038 21.2846 5.21591 21.0043 4.94318C20.7277 4.67045 20.3149 4.53409 19.7656 4.53409C19.1937 4.53409 18.7429 4.66098 18.4134 4.91477C18.0876 5.16477 17.8622 5.44318 17.7372 5.75L16.1406 5.38636C16.33 4.85606 16.6065 4.42803 16.9702 4.10227C17.3376 3.77273 17.7599 3.53409 18.2372 3.38636C18.7145 3.23485 19.2164 3.15909 19.7429 3.15909C20.0914 3.15909 20.4607 3.20076 20.8509 3.28409C21.2448 3.36364 21.6122 3.51136 21.9531 3.72727C22.2978 3.94318 22.58 4.25189 22.7997 4.65341C23.0194 5.05114 23.1293 5.56818 23.1293 6.20455V12H21.4702V10.8068H21.402C21.2921 11.0265 21.1274 11.2424 20.9077 11.4545C20.688 11.6667 20.4058 11.8428 20.0611 11.983C19.7164 12.1231 19.3035 12.1932 18.8224 12.1932ZM19.1918 10.8295C19.6615 10.8295 20.063 10.7367 20.3963 10.5511C20.7334 10.3655 20.9891 10.1231 21.1634 9.82386C21.3414 9.52083 21.4304 9.19697 21.4304 8.85227V7.72727C21.3698 7.78788 21.2524 7.8447 21.0781 7.89773C20.9077 7.94697 20.7126 7.99053 20.4929 8.02841C20.2732 8.0625 20.0592 8.0947 19.8509 8.125C19.6425 8.15152 19.4683 8.17424 19.3281 8.19318C18.9986 8.23485 18.6974 8.30492 18.4247 8.40341C18.1558 8.50189 17.9399 8.64394 17.777 8.82955C17.6179 9.01136 17.5384 9.25379 17.5384 9.55682C17.5384 9.97727 17.6937 10.2955 18.0043 10.5114C18.3149 10.7235 18.7107 10.8295 19.1918 10.8295ZM29.4659 3.27273V4.63636H24.6989V3.27273H29.4659ZM25.9773 1.18182H27.6761V9.4375C27.6761 9.76705 27.7254 10.0152 27.8239 10.1818C27.9223 10.3447 28.0492 10.4564 28.2045 10.517C28.3636 10.5739 28.536 10.6023 28.7216 10.6023C28.858 10.6023 28.9773 10.5928 29.0795 10.5739C29.1818 10.5549 29.2614 10.5398 29.3182 10.5284L29.625 11.9318C29.5265 11.9697 29.3864 12.0076 29.2045 12.0455C29.0227 12.0871 28.7955 12.1098 28.5227 12.1136C28.0758 12.1212 27.6591 12.0417 27.2727 11.875C26.8864 11.7083 26.5739 11.4508 26.3352 11.1023C26.0966 10.7538 25.9773 10.3163 25.9773 9.78977V1.18182ZM35.0128 12.1761C34.1529 12.1761 33.4124 11.9924 32.7912 11.625C32.1738 11.2538 31.6965 10.733 31.3594 10.0625C31.026 9.38826 30.8594 8.59848 30.8594 7.69318C30.8594 6.79924 31.026 6.01136 31.3594 5.32955C31.6965 4.64773 32.1662 4.11553 32.7685 3.73295C33.3745 3.35038 34.0829 3.15909 34.8935 3.15909C35.3859 3.15909 35.8632 3.24053 36.3253 3.40341C36.7874 3.56629 37.2022 3.82197 37.5696 4.17045C37.937 4.51894 38.2268 4.97159 38.4389 5.52841C38.651 6.08144 38.7571 6.75379 38.7571 7.54545V8.14773H31.8196V6.875H37.0923C37.0923 6.42803 37.0014 6.0322 36.8196 5.6875C36.6378 5.33902 36.3821 5.06439 36.0526 4.86364C35.7268 4.66288 35.3442 4.5625 34.9048 4.5625C34.4276 4.5625 34.0109 4.67992 33.6548 4.91477C33.3026 5.14583 33.0298 5.44886 32.8366 5.82386C32.6473 6.19508 32.5526 6.59848 32.5526 7.03409V8.02841C32.5526 8.61174 32.6548 9.10795 32.8594 9.51705C33.0677 9.92614 33.3575 10.2386 33.7287 10.4545C34.0999 10.6667 34.5336 10.7727 35.0298 10.7727C35.3518 10.7727 35.6454 10.7273 35.9105 10.6364C36.1757 10.5417 36.4048 10.4015 36.598 10.2159C36.7912 10.0303 36.9389 9.80114 37.0412 9.52841L38.6491 9.81818C38.5204 10.2917 38.2893 10.7064 37.956 11.0625C37.6264 11.4148 37.2116 11.6894 36.7116 11.8864C36.2154 12.0795 35.6491 12.1761 35.0128 12.1761ZM40.642 12V3.27273H42.2841V4.65909H42.375C42.5341 4.18939 42.8144 3.82008 43.2159 3.55114C43.6212 3.27841 44.0795 3.14205 44.5909 3.14205C44.697 3.14205 44.822 3.14583 44.9659 3.15341C45.1136 3.16098 45.2292 3.17045 45.3125 3.18182V4.80682C45.2443 4.78788 45.1231 4.76705 44.9489 4.74432C44.7746 4.7178 44.6004 4.70455 44.4261 4.70455C44.0246 4.70455 43.6667 4.78977 43.3523 4.96023C43.0417 5.12689 42.7955 5.35985 42.6136 5.65909C42.4318 5.95455 42.3409 6.29167 42.3409 6.67045V12H40.642Z" fill="#101828"/>
</svg>
